<svg width="15" height="14" viewBox="0 0 15 14" fill="none" xmlns="http://www.w3.org/2000/svg"><path d="M6.443 0a.699.699 0 00-.686.566l-.234 1.2a5.588 5.588 0 00-1.572.904L2.8 2.274a.7.7 0 00-.834.311L.91 4.415a.701.701 0 00.147.879l.922.802A5.606 5.606 0 001.9 7c0 .309.031.609.08.904l-.923.802a.701.701 0 00-.147.88l1.056 1.829a.7.7 0 00.834.313l1.15-.397c.467.383.999.685 1.573.903l.234 1.2a.699.699 0 00.686.566h2.114a.699.699 0 00.686-.566l.234-1.2a5.59 5.59 0 001.572-.904l1.152.396a.7.7 0 00.833-.311l1.056-1.831a.7.7 0 00-.146-.878l-.923-.802c.048-.295.08-.595.08-.904 0-.309-.032-.609-.08-.904l.923-.802a.701.701 0 00.146-.88l-1.056-1.829a.7.7 0 00-.834-.313l-1.15.397a5.589 5.589 0 00-1.573-.903l-.234-1.2A.699.699 0 008.557 0H6.443zM7.5 4.2a2.8 2.8 0 110 5.6 2.8 2.8 0 010-5.6z" fill="#1582D8"/></svg>